<?xml version="1.0" encoding="utf-8"?>
<!-- Generator: Adobe Illustrator 22.0.1, SVG Export Plug-In . SVG Version: 6.00 Build 0)  -->
<svg version="1.1" id="Слой_3" xmlns="http://www.w3.org/2000/svg" xmlns:xlink="http://www.w3.org/1999/xlink" x="0px" y="0px"
	 viewBox="0 0 440.6 136.9" style="enable-background:new 0 0 440.6 136.9;" xml:space="preserve">
<style type="text/css">
	.st0{opacity:0.5;}
	.st1{fill:#FFFFFF;}
</style>
<g class="st0">
	<g>
		<path d="M196.8,117.6c1.8-1.2,1.9-2.3-0.1-3.1c-4.3-1.8-7.8-4.8-11.4-7.7c-2.2-1.8-3.8-4.3-5.4-6.7c-1.7-2.7-3.3-5.4-4.5-8.4
			c-2.9-7.5-3.3-15.2-2.8-23c0.1-1,0.4-2.1,0.7-2.9c0.6-1.5-0.1-2.2-1-2.8s-2-1.4-3.2-0.3l0,0c-0.1-1.6,2.2-1.9,2-3.6
			c-0.1-1.3,0.9-1.3,1.7-1.6c0.5,0.8-0.5,1-0.5,1.5c0.1,0.6-1.4,1.2-0.2,1.6c0.7,0.3,1.7,0.9,2.4-0.6c0.9-1.7,1.2-3.6,2.2-5.3
			c2.1-3.7,4.4-7.5,7.4-10.4c2.8-2.7,5.9-5.3,9.5-7.1c4.1-2.1,8.3-3.5,12.8-4.2c3.1,0.6,6.2,0.7,9.3-0.1c1,0.5,2.1,0.3,3.2,0.7
			c1.1,0.4,2.3,0.3,2.7-1.3c0.3-1.1,1-2.1,1.6-3.1c0.6-1.1-0.2-1.2-0.5-2.1c-1.1,1.6-0.3,4.1-2.7,4.7c-0.9-1.6,0.4-2.8,0.7-4.2
			c0.3-1.3,1.2-2.4,0-3.7c-0.5-0.5,0.2-0.9,0.6-1.1c0.8-0.7,1.3,0.3,1.4,0.6c1,2.1,2.8,3.7,3.5,6c2-1,0.1-4.5,3.5-4.5
			c-1,2.3-1.6,4.6-2.1,6.9c-0.2,0.8-0.5,2-1.7,1.8c-1.1-0.1-0.4-1.1-0.6-1.7c-0.2-0.6-0.2-1.4-1-1.4c-0.9,0-0.7,0.8-0.8,1.4
			c-0.3,1.9,0.2,2.9,2.3,3.8c5.2,2.2,9.5,5.8,13.4,9.8c3.4,3.5,5.4,7.7,7.5,11.9c1.9,3.7,2.8,7.6,3.5,11.6c-0.5,0.5-0.5,1.1-0.5,1.8
			c0,3.8,0,7.7,0.1,11.5c0,0.8,0,1.6-0.3,2.5c-0.5,1.3,0.8,1.7,1.6,2.3c0.4,0.3,0.7,0.6,1,0c0.3-0.7,1.1-1.4,0.2-2.2
			c-0.2-0.1-0.5-0.5-0.2-0.6c0.5-0.2,0.9-0.6,1.5-0.4c1.5,0.5,3,0.9,4.6,1.4c-0.6,0.6-0.9,1.3-2,0.8c-0.7-0.3-1.9-0.8-2.2,0.8
			c-0.3,1.6,0.7,1.4,1.6,1.4c0.6,0,1,0.2,1,0.8c-0.1,0.6-0.7,0.5-1.1,0.6c-0.8,0.3-2-0.8-2.5,0.9c-0.7,2.3,1.3,1.8,2.2,2.4
			c0.4,0.3,1.5,0,1.5,0.8c-0.1,0.9-1.1,0.6-1.7,0.6c-1.4,0.1-2.3-1.3-3.7-1.3c-0.4,0-0.4-0.6-0.3-1.1c0.2-0.9,0.4-1.7,0.6-2.6
			c-3.1-0.3-3.3,0-4.9,3.6c-1.6,3.7-3.2,7.4-6,10.4c-3.2,3.3-6.3,6.7-10.4,9c-3.5,1.9-7.1,3.6-11,4.2c-4,0.6-7.9,1.6-12.1,0.5
			c-1.4-0.4-3-0.4-4.5-0.7c-0.9-0.2-1.9-0.8-2.4,0.3c-0.5,1,0.5,1.5,1.5,2.1c-1.4,0.2-2.3,0.3-3.2-0.6c-0.2-0.2-0.9-1-1.6-0.3
			C197.1,117.9,197,117.7,196.8,117.6z M213.1,87.3c-0.1,0-0.1-0.1-0.1-0.2c0.3-0.5,0.1-0.9-0.4-1c-0.9-1.4-1.8-2.7-2.7-4.1
			c-0.3-0.5-0.6-0.5-1-0.5s-0.5,0.4-0.5,0.7c-0.7,4.2-2.1,8.3-3.1,12.5c-1.5,5.9-3.1,11.7-5,17.4c-0.1,0.3-0.4,0.7,0,0.9
			c0.3,0.2,0.6-0.1,0.9-0.3c1.4-0.9,1.1-2.8,2.2-3.8c1.7,0,1.3-2.4,2.9-2.5c0.1,0.2,0.1,0.4,0.2,0.7c0.1,0.2,0.3,0.4,0.4,0.4
			c3.3,0.3,6.6,0.3,9.8,0c0.2,0,0.4-0.4,0.6-0.6c1.9-0.9,4.1-0.9,5.8-2.3c0.4-0.4,1.2-0.4,0.5-1.4c-1.8-2.6-3.5-5.2-5-7.9
			c-1-1.9-3.2-3-3.4-5.4c-0.3-0.8-0.7-1.5-1.4-2.1v0.1C213.7,87.5,213.6,87.2,213.1,87.3z M227.4,72.5L227.4,72.5
			c-0.2,0.3-0.4,0.7-0.6,1c-0.3-0.2-0.6-0.3-0.9-0.5c-1.5-1.4-2.9-1.5-4.4,0.2c-0.9,1-2,1.9-3.2,2.6c-1,0.6-0.9,0.9-0.1,1.4
			c1.1,0.8,2.4,1,3.6,1.4c3.5,1.3,7.1,2.4,10.6,3.7c3.5,1.3,7.1,2.3,10.7,3.4c1.4,0.4,2.9,1.3,5.1,1.2c-3.7-2.3-6.9-4.3-10.1-6.2
			c0.3-0.2,0.6-0.3,1-0.5c0.9,0.1,1.6,0.3,1.8-1.2c0.4-2.5,0-4.9,0-7.3c0-4-2.1-7.2-3.1-10.9c-1.5,1.3-2.7,2.9-4.3,3.7
			c-2.8,1.3-4.5,3.7-7,5.3c-1.5,0.9-1.1,1.8,0.3,2.5C227,72.3,227.2,72.4,227.4,72.5z M181.8,69.7c-0.4,0.3-0.4,0.5,0,0.8
			c-0.4,0.6-0.5,1.3-0.4,2c0.1,2.5-0.1,4.9,0.5,7.4c0.5,2.5,1,5,1.9,7.3c0.3,0.8,0.5,1.1,1.5,0.5c1.7-1,3.1-2.5,4.7-3.7
			c2.4-1.9,5.2-3.4,7.4-5.7c0.4-0.3,1.2,0.2,1.3-0.7c1.6-1.2,3.1-2.5,4.7-3.7c0.5-0.4,1.3-0.6,1.2-1.3c-0.1-0.8-1-1-1.6-1.1
			c-3.9-0.7-7.3-2.5-11.1-3.5c-1.6-0.4-3-1.5-4.6-1.7c-2.6-0.4-4.9-1.7-7.4-2.3c-1.7-0.4-3.3-1.1-5.5-1.9c1.4,1.6,2.8,2.3,4.1,3
			c1.2,0.7,2.7,1.1,3.4,2.5C181.8,68.5,181.8,69.2,181.8,69.7L181.8,69.7z M208.5,59.7c-0.5,1-0.8,2,0.1,2.9
			c1.7,1.6,2.8,3.6,4.2,5.7c2.7-11.1,6.7-21.4,8.8-32.3c-1.1,1.9-2.1,3.9-3.1,5.8c-0.6,1.1-0.9,2.4-2.2,3.1
			c-0.3-0.1-0.6-0.3-0.8-0.4c0.5-1.1-0.3-1.2-1-1.2c-5.7-0.4-11.2,0.2-16.3,2.9c1.7,3.7,4.5,6.5,6.5,10c0.7,1.2,1.2,2.8,2.7,3.5
			C207.8,59.6,208.2,59.6,208.5,59.7z M185.2,90c1.3,0,2.4-0.6,3.5-1.1c3.1-1.5,6.1-2.9,9.5-3.6c-1.2,1.2-2.9,1.8-4.4,2.3
			c-3,0.9-5.6,2.5-8.3,3.3c0.4,0.6,1,1.1,1.2,1.7c1.9,4.1,5.1,7,8.7,9.6c2.5,1.8,2.4,2.1,3.8-0.3c0-0.1,0.1-0.1,0.2-0.1
			c0.9-2.5,0.7-5,0.1-7.5c0.2-1.8,0-3.6,0.5-5.4c0.8-2.7,0.2-3.4-1.9-3.3c1.8-1.6,4.2-1.9,6.4-2.9c2.8-1.2,6.1-1.8,6.1-5.9
			c0-0.4-0.1-0.9,0.5-1c0.8-0.1,0.6,0.6,0.8,1c0.8,1.8,1.6,3.6,2.5,5.3c2.6,5,5.2,10,7.4,15.2c1,2.2,1.7,4.6,3.7,6.6
			c0-0.8,0-1.2,0-1.6c0.6,0.4,1.1,0.8,2,0c2.1-2,4.5-3.8,6.3-6c1.6-1.9,3-4.1,3.9-6.6c0.5-1.4,0.4-1.7-1-1.7
			c-4.9-0.1-9.8-0.5-14.6-1.2c-1-0.1-1.9-0.1-1.3,1.4c0.9,2.6,1.9,5.1,2.7,7.7c0.7,2.2,2.4,4,2.2,6.4c-2-3.4-3.1-7-4.3-10.7
			c-1.3-4.1-2.8-8.1-4.2-12.2c-0.4-1.2-0.7-2.7-1.9-3.2c-2.1-0.9-4.4-1.6-6.6-0.1c-5.3,3.6-11.1,6.4-16.6,9.6c-2.3,1.3-4.4,3.2-7,4
			c-0.2,0.2-0.6,0.3-0.3,0.6C184.7,90.4,185,90.3,185.2,90z M196.9,48.2c-0.6-0.4-0.8-0.8-1.8-0.2c-4.9,2.9-7.6,7.6-10.3,12.2
			c-0.9,1.5-0.1,1.8,1.2,1.9c1.2,0.1,2.4,0,3.6,0.1c4,0.3,7.9,0.6,11.9,0.8c-0.7-2.1-1.1-4-1.8-5.6
			C198.4,54.4,196.9,51.5,196.9,48.2c1.2,2.7,1.8,5.7,3,8.5c1.6,4.1,3.7,8,4.5,12.3c0.7,3.8,2.6,5.2,6.2,5.3
			c-4.5-9.2-9-18.4-13.7-28.1C196.9,47.3,196.9,47.7,196.9,48.2z M222.4,50.3c-1.2,2.3-0.8,4.7-0.3,7.1c-0.8,2-0.7,4.1-0.2,6
			c0.5,2-0.6,2.4-1.7,2.7c-1.8,0.5-3.4,1.4-5.2,2c-1.1,0.4-2.7,0.4-3,1.9c-0.3,1.4-0.5,2.8-1,4.5c8.7-4.9,17.1-9.6,25.5-14.3
			c0.5-0.4,1.4-0.2,1.6-1.3c-0.8,0.1-1.5,0.3-1.9,0.9c-1.7-0.2-3.1,1.9-4.9,1l0,0c1.3-0.6,2.6-1.3,4-1.6c1.6-0.4,1.3-0.7,0.6-1.9
			c-1.4-2.2-3.1-4.1-5-6c-2.1-2.2-4.4-3.9-7.2-5.2c-1.1-0.5-1.1-0.2-1.2,0.7C222.6,48,223.1,49.2,222.4,50.3z"/>
		<path d="M169.2,62.6c-0.7,1.8-0.7,1.8-2.1,2.5c-0.2-1.9,0.2-3.9-0.6-5.9c-1,1.4-1.8,2.7-2.7,3.9c-0.3,0.4-0.7,1-1.4,0.7
			c-0.8-0.3-0.4-0.9-0.4-1.4c-0.1-2.5,0.2-5.1-0.3-7.7c1.7-0.7,2.2,0.1,2.1,1.8c0,1.3-0.5,2.7,0.8,3.9c0.6-1.1,1.1-2,1.8-2.9
			c0.3-0.4,0.4-1.3,1.1-0.9c0.5,0.2,0.9,0.9,1,1.5c0.2,1,0,1.9,0.1,2.9C168.6,61.7,168.4,62.4,169.2,62.6
			C169.2,62.7,169.2,62.6,169.2,62.6z"/>
		<path d="M197.2,118c-0.9,1.7,0.5,2.6,1.4,3.4c1.1,0.9,2.3,1.4,1.7,3.1c-0.3,0.9-3.4,2.3-4.3,2c-0.6-0.2-1.2-0.6-1.8-1
			c-0.5-0.3-1.2-0.4-1.1-1.3c0.1-0.9,0.9-0.4,1.3-0.7c0.9-0.6,1.1,0.2,1.2,0.8c0.2,1,1.1,1,1.7,1.2c0.6,0.2,1-0.5,1.2-1
			c0.3-1-0.9-1.4-1.2-2.1c-0.3-0.5-1-0.7-1.4-1.2c-1.4-1.6-1.5-2.6,1-3.6C197,117.7,197.1,117.9,197.2,118z"/>
		<path d="M250,82.5c0-3.8,0-7.7-0.1-11.5c0-0.6-0.1-1.3,0.5-1.8l0.1,0.1l-0.1,0.1c0,4.2,0,8.5,0,12.7
			C250.3,82.3,250.1,82.4,250,82.5z"/>
		<path d="M250.4,82.2c0-4.2,0-8.5,0-12.7C250.7,73.7,250.8,78,250.4,82.2z"/>
		<path d="M215.9,33.1c-3.1,0.7-6.2,0.6-9.3,0.1C209.7,32.7,212.8,32.9,215.9,33.1z"/>
		<path d="M203.2,108.8c1.3-1.6,1.7-3.7,2.7-5.6c2.6-4.7,5.1-9.4,7.6-14.2c0.2-0.3,0.1-0.8,0.1-1.2c0.6,0.6,1.1,1.3,1.4,2.1
			c-0.7,0-1,0.3-1.2,0.9c-0.8,2.9-2.4,5.5-3.9,7.9c-1.6,2.4-2.5,5.1-3.9,7.6C204.5,106.5,204.9,108.8,203.2,108.8z"/>
		<path d="M181.8,67.9c3.6,1.6,6.9,3.8,10.1,6c2.1,1.4,4.5,2.6,6.7,3.9c-0.1,0.9-0.9,0.4-1.3,0.7c-3.5-1.6-6.6-3.7-9.7-6
			c-1.7-1.3-3.5-2.6-5.8-2.8C181.8,69.2,181.8,68.5,181.8,67.9z"/>
		<path d="M216.3,44.9c-1.4,3.8-3.5,7.3-5.3,10.9c-0.7,1.3-0.8,3.1-2.5,3.9c-0.3,0-0.7-0.1-1-0.1c2.7-5,5.4-10.1,8-15.1
			C215.8,44.6,216,44.7,216.3,44.9z"/>
		<path d="M238,80.7c-3.6-2.7-7.8-4.3-11.3-7.2c0.2-0.3,0.4-0.7,0.7-1c2,1.1,3.7,2.7,5.8,3.7s4.1,2.4,5.8,4.1
			C238.7,80.4,238.4,80.5,238,80.7z"/>
		<path d="M206.2,107c3.6,0,7.2-0.1,10.8-0.1c-0.2,0.2-0.4,0.5-0.6,0.6c-3.3,0.2-6.6,0.3-9.8,0C206.5,107.4,206.4,107.1,206.2,107z"
			/>
		<path d="M199.3,101.7c-0.1-2.5-0.3-5,0.1-7.5C200.1,96.6,200.3,99.2,199.3,101.7z"/>
		<path d="M222.4,50.3c-0.1,2.4-0.2,4.8-0.3,7.1C221.6,55.1,221.2,52.7,222.4,50.3z"/>
		<path d="M236.3,59.9c0.4-0.7,1.1-0.8,1.9-0.9c-0.2,1-1.1,0.9-1.6,1.3C236.6,60.1,236.5,60,236.3,59.9z"/>
		<path d="M213,87.1c-0.4-0.2-0.4-0.6-0.4-1C213.1,86.3,213.3,86.6,213,87.1z"/>
		<path d="M213.7,87.9c-0.2-0.2-0.4-0.4-0.6-0.6C213.6,87.2,213.7,87.5,213.7,87.9z"/>
		<path d="M185.2,90c-0.1,0.3-0.5,0.5-0.6,0.2c-0.2-0.3,0.2-0.4,0.3-0.6C185,89.7,185.1,89.9,185.2,90z"/>
		<path d="M181.8,69.7c0,0.3,0,0.5,0,0.8C181.4,70.3,181.4,70,181.8,69.7z"/>
		<path d="M226.8,72.2c0.3-0.2,0.5,0,0.6,0.3C227.2,72.4,227,72.3,226.8,72.2z"/>
		<path d="M231.4,60.8c0,0.2,0.1,0.5,0,0.5c-2.6,1.5-5.4,2.5-8.2,3.5c-0.1-0.2-0.2-0.4-0.2-0.6C225.8,63.1,228.6,62,231.4,60.8
			C231.4,60.9,231.4,60.8,231.4,60.8z"/>
	</g>
	<g>
		<path d="M67,67.4l-2,11.1c-2.2,12.8-11.3,19.6-26,19.6H20.8c-2.4,0-3-0.8-2.6-3.1l8.1-46.3c0.4-2.3,1.3-3.1,3.7-3.1h18
			C62.7,45.6,69.3,54.6,67,67.4z M45.3,58.5h-6.1l-4.7,26.7h6.1c6,0,9-2.7,10.1-8l1.9-10.7C53.4,61.3,51.4,58.5,45.3,58.5z"/>
		<path d="M77.2,59.1h6.5c1.6,0,2.1,0.6,1.8,2.2L79.4,96c-0.3,1.6-0.9,2.2-2.6,2.2h-6.5c-1.6,0-2.1-0.5-1.8-2.2l6.1-34.6
			C74.9,59.7,75.5,59.1,77.2,59.1z"/>
		<path d="M106.4,58.3c8.1,0,12.1,3,13.7,8.1c0.6,1.6,0.1,2.1-1.6,2.9l-5.4,2.1c-1.6,0.7-2.2,0.4-2.7-1.2c-0.8-2.1-2.6-2.9-5.1-2.9
			c-3.7,0-5.4,0.9-5.8,2.9c-0.4,2.4,2.8,2.9,6.7,3.4c6.2,0.9,14,3.7,12.2,13.8c-1.5,8.1-7.8,11.5-18.5,11.5c-8.2,0-13.9-2.8-15-8.5
			c-0.3-1.6,0.3-2.4,2-3l5.4-2c1.7-0.6,2.4-0.4,3,1.2c0.6,1.9,2.6,2.9,5.7,2.9c3.7,0,6-0.8,6.5-3.1c0.4-2.2-2.4-2.7-5.9-3.2
			c-6.3-0.9-14.8-2.9-13-13.6C89.9,62.4,95.9,58.3,106.4,58.3z"/>
		<path d="M143.3,58.3c8.5,0,12.5,3.6,13.7,9.8c0.3,1.6-0.1,2.4-1.9,3l-5.7,1.9c-1.8,0.5-2.4,0.2-2.8-1.5c-0.5-2.5-1.9-3.6-5-3.6
			c-4.3,0-6.4,1.9-7,5.7l-1.8,10.1c-0.7,3.8,0.7,5.7,5.1,5.7c3.1,0,5-1.2,6.4-3.6c0.9-1.7,1.6-2.1,3.2-1.5l5.6,2.2
			c1.6,0.6,1.9,1.4,1,3c-3.4,6.2-9.3,9.5-17.8,9.5c-10.8,0-15.9-6.4-14.2-15.9l1.8-10.2C125.5,63.5,132.4,58.3,143.3,58.3z"/>
	</g>
	<g>
		<path d="M305.1,60.5l-18.3,34.9c-0.9,1.6-1.6,1.9-3.2,1.9h-6.9c-1.5,0-2.3-0.4-2.5-1.8l-6-35c-0.3-1.5,0.3-2.3,2-2.3h6.1
			c2.8,0,3.5,0.6,3.6,2.3l2,18.8c0.3,3.2,0,7.1,0,7.1h0.4c0,0,0.9-3.7,2.4-7l8.7-18.9c0.8-1.7,1.5-2.3,4.3-2.3h6.3
			C305.7,58.2,305.9,59,305.1,60.5z"/>
		<path d="M336.1,60.5l-0.9,4.9c-0.3,1.8-1,2.3-2.8,2.3h-14.6l-0.8,4.9h11.6c1.8,0,2.2,0.6,1.9,2.4l-0.9,4.9c-0.3,1.8-1,2.4-2.8,2.4
			h-11.6l-0.9,5.3h15c1.7,0,2.2,0.5,1.9,2.3l-0.9,5c-0.3,1.7-1,2.3-2.8,2.3H304c-1.8,0-2.3-0.6-1.9-2.3l6-34.4
			c0.3-1.7,1-2.3,2.8-2.3h23C335.9,58.2,336.4,58.8,336.1,60.5z"/>
		<path d="M370.7,71.9c-0.9,5.3-3.8,8.8-7.9,10.9c0.4,0.7,0.8,1.5,1.1,2.4l3.2,9.4c0.5,1.5-0.1,2.7-1.9,2.7h-5.9
			c-2.9,0-4-0.7-4.6-2.6l-2.2-7.5c-0.5-1.9-1-2.8-3.4-2.8h-1.4L345.8,95c-0.3,1.7-1,2.3-2.8,2.3h-6.2c-1.8,0-2.3-0.6-1.9-2.3l6-34.4
			c0.3-1.7,1-2.3,2.8-2.3h15.7C367.7,58.2,372.2,63.4,370.7,71.9z M356.4,67.8h-5.9l-1.3,7.3h5.9c2.3,0,3.9-1.4,4.3-3.7
			C359.9,69.2,358.8,67.8,356.4,67.8z"/>
		<path d="M419.7,47.8l-22.2,29.1l-3,17.2c-0.4,2.3-1.3,3.1-3.7,3.1h-8.3c-2.4,0-3-0.8-2.6-3.1l3-17.2L371,47.8
			c-0.7-1.7-0.2-3.1,2.1-3.1h8.6c3.7,0,4.7,0.1,5.7,2.7l5.3,15.2l10.9-15.2c1.8-2.6,2.9-2.7,6.5-2.7h8.7
			C420.9,44.7,421,46.1,419.7,47.8z"/>
	</g>
</g>
<g>
	<g>
		<path class="st1" d="M196.8,111.6c1.8-1.2,1.9-2.3-0.1-3.1c-4.3-1.8-7.8-4.8-11.4-7.7c-2.2-1.8-3.8-4.3-5.4-6.7
			c-1.7-2.7-3.3-5.4-4.5-8.4c-2.9-7.5-3.3-15.2-2.8-23c0.1-1,0.4-2.1,0.7-2.9c0.6-1.5-0.1-2.2-1-2.8s-2-1.4-3.2-0.3l0,0
			c-0.1-1.6,2.2-1.9,2-3.6c-0.1-1.3,0.9-1.3,1.7-1.6c0.5,0.8-0.5,1-0.5,1.5c0.1,0.6-1.4,1.2-0.2,1.6c0.7,0.3,1.7,0.9,2.4-0.6
			c0.9-1.7,1.2-3.6,2.2-5.3c2.1-3.7,4.4-7.5,7.4-10.4c2.8-2.7,5.9-5.3,9.5-7.1c4.1-2.1,8.3-3.5,12.8-4.2c3.1,0.6,6.2,0.7,9.3-0.1
			c1,0.5,2.1,0.3,3.2,0.7c1.1,0.4,2.3,0.3,2.7-1.3c0.3-1.1,1-2.1,1.6-3.1c0.6-1.1-0.2-1.2-0.5-2.1c-1.1,1.6-0.3,4.1-2.7,4.7
			c-0.9-1.6,0.4-2.8,0.7-4.2c0.3-1.3,1.2-2.4,0-3.7c-0.5-0.5,0.2-0.9,0.6-1.1c0.8-0.7,1.3,0.3,1.4,0.6c1,2.1,2.8,3.7,3.5,6
			c2-1,0.1-4.5,3.5-4.5c-1,2.3-1.6,4.6-2.1,6.9c-0.2,0.8-0.5,2-1.7,1.8c-1.1-0.1-0.4-1.1-0.6-1.7c-0.2-0.6-0.2-1.4-1-1.4
			c-0.9,0-0.7,0.8-0.8,1.4c-0.3,1.9,0.2,2.9,2.3,3.8c5.2,2.2,9.5,5.8,13.4,9.8c3.4,3.5,5.4,7.7,7.5,11.9c1.9,3.7,2.8,7.6,3.5,11.6
			c-0.5,0.5-0.5,1.1-0.5,1.8c0,3.8,0,7.7,0.1,11.5c0,0.8,0,1.6-0.3,2.5c-0.5,1.3,0.8,1.7,1.6,2.3c0.4,0.3,0.7,0.6,1,0
			c0.3-0.7,1.1-1.4,0.2-2.2c-0.2-0.1-0.5-0.5-0.2-0.6c0.5-0.2,0.9-0.6,1.5-0.4c1.5,0.5,3,0.9,4.6,1.4c-0.6,0.6-0.9,1.3-2,0.8
			c-0.7-0.3-1.9-0.8-2.2,0.8c-0.3,1.6,0.7,1.4,1.6,1.4c0.6,0,1,0.2,1,0.8c-0.1,0.6-0.7,0.5-1.1,0.6c-0.8,0.3-2-0.8-2.5,0.9
			c-0.7,2.3,1.3,1.8,2.2,2.4c0.4,0.3,1.5,0,1.5,0.8c-0.1,0.9-1.1,0.6-1.7,0.6c-1.4,0.1-2.3-1.3-3.7-1.3c-0.4,0-0.4-0.6-0.3-1.1
			c0.2-0.9,0.4-1.7,0.6-2.6c-3.1-0.3-3.3,0-4.9,3.6c-1.6,3.7-3.2,7.4-6,10.4c-3.2,3.3-6.3,6.7-10.4,9c-3.5,1.9-7.1,3.6-11,4.2
			c-4,0.6-7.9,1.6-12.1,0.5c-1.4-0.4-3-0.4-4.5-0.7c-0.9-0.2-1.9-0.8-2.4,0.3c-0.5,1,0.5,1.5,1.5,2.1c-1.4,0.2-2.3,0.3-3.2-0.6
			c-0.2-0.2-0.9-1-1.6-0.3C197.1,111.9,197,111.7,196.8,111.6z M213.1,81.3c-0.1,0-0.1-0.1-0.1-0.2c0.3-0.5,0.1-0.9-0.4-1
			c-0.9-1.4-1.8-2.7-2.7-4.1c-0.3-0.5-0.6-0.5-1-0.5s-0.5,0.4-0.5,0.7c-0.7,4.2-2.1,8.3-3.1,12.5c-1.5,5.9-3.1,11.7-5,17.4
			c-0.1,0.3-0.4,0.7,0,0.9c0.3,0.2,0.6-0.1,0.9-0.3c1.4-0.9,1.1-2.8,2.2-3.8c1.7,0,1.3-2.4,2.9-2.5c0.1,0.2,0.1,0.4,0.2,0.7
			c0.1,0.2,0.3,0.4,0.4,0.4c3.3,0.3,6.6,0.3,9.8,0c0.2,0,0.4-0.4,0.6-0.6c1.9-0.9,4.1-0.9,5.8-2.3c0.4-0.4,1.2-0.4,0.5-1.4
			c-1.8-2.6-3.5-5.2-5-7.9c-1-1.9-3.2-3-3.4-5.4c-0.3-0.8-0.7-1.5-1.4-2.1v0.1C213.7,81.5,213.6,81.2,213.1,81.3z M227.4,66.5
			L227.4,66.5c-0.2,0.3-0.4,0.7-0.6,1c-0.3-0.2-0.6-0.3-0.9-0.5c-1.5-1.4-2.9-1.5-4.4,0.2c-0.9,1-2,1.9-3.2,2.6
			c-1,0.6-0.9,0.9-0.1,1.4c1.1,0.8,2.4,1,3.6,1.4c3.5,1.3,7.1,2.4,10.6,3.7c3.5,1.3,7.1,2.3,10.7,3.4c1.4,0.4,2.9,1.3,5.1,1.2
			c-3.7-2.3-6.9-4.3-10.1-6.2c0.3-0.2,0.6-0.3,1-0.5c0.9,0.1,1.6,0.3,1.8-1.2c0.4-2.5,0-4.9,0-7.3c0-4-2.1-7.2-3.1-10.9
			c-1.5,1.3-2.7,2.9-4.3,3.7c-2.8,1.3-4.5,3.7-7,5.3c-1.5,0.9-1.1,1.8,0.3,2.5C227,66.3,227.2,66.4,227.4,66.5z M181.8,63.7
			c-0.4,0.3-0.4,0.5,0,0.8c-0.4,0.6-0.5,1.3-0.4,2c0.1,2.5-0.1,4.9,0.5,7.4c0.5,2.5,1,5,1.9,7.3c0.3,0.8,0.5,1.1,1.5,0.5
			c1.7-1,3.1-2.5,4.7-3.7c2.4-1.9,5.2-3.4,7.4-5.7c0.4-0.3,1.2,0.2,1.3-0.7c1.6-1.2,3.1-2.5,4.7-3.7c0.5-0.4,1.3-0.6,1.2-1.3
			c-0.1-0.8-1-1-1.6-1.1c-3.9-0.7-7.3-2.5-11.1-3.5c-1.6-0.4-3-1.5-4.6-1.7c-2.6-0.4-4.9-1.7-7.4-2.3c-1.7-0.4-3.3-1.1-5.5-1.9
			c1.4,1.6,2.8,2.3,4.1,3c1.2,0.7,2.7,1.1,3.4,2.5C181.8,62.5,181.8,63.2,181.8,63.7L181.8,63.7z M208.5,53.7c-0.5,1-0.8,2,0.1,2.9
			c1.7,1.6,2.8,3.6,4.2,5.7c2.7-11.1,6.7-21.4,8.8-32.3c-1.1,1.9-2.1,3.9-3.1,5.8c-0.6,1.1-0.9,2.4-2.2,3.1
			c-0.3-0.1-0.6-0.3-0.8-0.4c0.5-1.1-0.3-1.2-1-1.2c-5.7-0.4-11.2,0.2-16.3,2.9c1.7,3.7,4.5,6.5,6.5,10c0.7,1.2,1.2,2.8,2.7,3.5
			C207.8,53.6,208.2,53.6,208.5,53.7z M185.2,84c1.3,0,2.4-0.6,3.5-1.1c3.1-1.5,6.1-2.9,9.5-3.6c-1.2,1.2-2.9,1.8-4.4,2.3
			c-3,0.9-5.6,2.5-8.3,3.3c0.4,0.6,1,1.1,1.2,1.7c1.9,4.1,5.1,7,8.7,9.6c2.5,1.8,2.4,2.1,3.8-0.3c0-0.1,0.1-0.1,0.2-0.1
			c0.9-2.5,0.7-5,0.1-7.5c0.2-1.8,0-3.6,0.5-5.4c0.8-2.7,0.2-3.4-1.9-3.3c1.8-1.6,4.2-1.9,6.4-2.9c2.8-1.2,6.1-1.8,6.1-5.9
			c0-0.4-0.1-0.9,0.5-1c0.8-0.1,0.6,0.6,0.8,1c0.8,1.8,1.6,3.6,2.5,5.3c2.6,5,5.2,10,7.4,15.2c1,2.2,1.7,4.6,3.7,6.6
			c0-0.8,0-1.2,0-1.6c0.6,0.4,1.1,0.8,2,0c2.1-2,4.5-3.8,6.3-6c1.6-1.9,3-4.1,3.9-6.6c0.5-1.4,0.4-1.7-1-1.7
			c-4.9-0.1-9.8-0.5-14.6-1.2c-1-0.1-1.9-0.1-1.3,1.4c0.9,2.6,1.9,5.1,2.7,7.7c0.7,2.2,2.4,4,2.2,6.4c-2-3.4-3.1-7-4.3-10.7
			c-1.3-4.1-2.8-8.1-4.2-12.2c-0.4-1.2-0.7-2.7-1.9-3.2c-2.1-0.9-4.4-1.6-6.6-0.1c-5.3,3.6-11.1,6.4-16.6,9.6c-2.3,1.3-4.4,3.2-7,4
			c-0.2,0.2-0.6,0.3-0.3,0.6C184.7,84.4,185,84.3,185.2,84z M196.9,42.2c-0.6-0.4-0.8-0.8-1.8-0.2c-4.9,2.9-7.6,7.6-10.3,12.2
			c-0.9,1.5-0.1,1.8,1.2,1.9c1.2,0.1,2.4,0,3.6,0.1c4,0.3,7.9,0.6,11.9,0.8c-0.7-2.1-1.1-4-1.8-5.6
			C198.4,48.4,196.9,45.5,196.9,42.2c1.2,2.7,1.8,5.7,3,8.5c1.6,4.1,3.7,8,4.5,12.3c0.7,3.8,2.6,5.2,6.2,5.3
			c-4.5-9.2-9-18.4-13.7-28.1C196.9,41.3,196.9,41.7,196.9,42.2z M222.4,44.3c-1.2,2.3-0.8,4.7-0.3,7.1c-0.8,2-0.7,4.1-0.2,6
			c0.5,2-0.6,2.4-1.7,2.7c-1.8,0.5-3.4,1.4-5.2,2c-1.1,0.4-2.7,0.4-3,1.9c-0.3,1.4-0.5,2.8-1,4.5c8.7-4.9,17.1-9.6,25.5-14.3
			c0.5-0.4,1.4-0.2,1.6-1.3c-0.8,0.1-1.5,0.3-1.9,0.9c-1.7-0.2-3.1,1.9-4.9,1l0,0c1.3-0.6,2.6-1.3,4-1.6c1.6-0.4,1.3-0.7,0.6-1.9
			c-1.4-2.2-3.1-4.1-5-6c-2.1-2.2-4.4-3.9-7.2-5.2c-1.1-0.5-1.1-0.2-1.2,0.7C222.6,42,223.1,43.2,222.4,44.3z"/>
		<path class="st1" d="M169.2,56.6c-0.7,1.8-0.7,1.8-2.1,2.5c-0.2-1.9,0.2-3.9-0.6-5.9c-1,1.4-1.8,2.7-2.7,3.9
			c-0.3,0.4-0.7,1-1.4,0.7c-0.8-0.3-0.4-0.9-0.4-1.4c-0.1-2.5,0.2-5.1-0.3-7.7c1.7-0.7,2.2,0.1,2.1,1.8c0,1.3-0.5,2.7,0.8,3.9
			c0.6-1.1,1.1-2,1.8-2.9c0.3-0.4,0.4-1.3,1.1-0.9c0.5,0.2,0.9,0.9,1,1.5c0.2,1,0,1.9,0.1,2.9C168.6,55.7,168.4,56.4,169.2,56.6
			C169.2,56.7,169.2,56.6,169.2,56.6z"/>
		<path class="st1" d="M197.2,112c-0.9,1.7,0.5,2.6,1.4,3.4c1.1,0.9,2.3,1.4,1.7,3.1c-0.3,0.9-3.4,2.3-4.3,2c-0.6-0.2-1.2-0.6-1.8-1
			c-0.5-0.3-1.2-0.4-1.1-1.3c0.1-0.9,0.9-0.4,1.3-0.7c0.9-0.6,1.1,0.2,1.2,0.8c0.2,1,1.1,1,1.7,1.2c0.6,0.2,1-0.5,1.2-1
			c0.3-1-0.9-1.4-1.2-2.1c-0.3-0.5-1-0.7-1.4-1.2c-1.4-1.6-1.5-2.6,1-3.6C197,111.7,197.1,111.9,197.2,112z"/>
		<path class="st1" d="M250,76.5c0-3.8,0-7.7-0.1-11.5c0-0.6-0.1-1.3,0.5-1.8l0.1,0.1l-0.1,0.1c0,4.2,0,8.5,0,12.7
			C250.3,76.3,250.1,76.4,250,76.5z"/>
		<path class="st1" d="M250.4,76.2c0-4.2,0-8.5,0-12.7C250.7,67.7,250.8,72,250.4,76.2z"/>
		<path class="st1" d="M215.9,27.1c-3.1,0.7-6.2,0.6-9.3,0.1C209.7,26.7,212.8,26.9,215.9,27.1z"/>
		<path class="st1" d="M203.2,102.8c1.3-1.6,1.7-3.7,2.7-5.6c2.6-4.7,5.1-9.4,7.6-14.2c0.2-0.3,0.1-0.8,0.1-1.2
			c0.6,0.6,1.1,1.3,1.4,2.1c-0.7,0-1,0.3-1.2,0.9c-0.8,2.9-2.4,5.5-3.9,7.9c-1.6,2.4-2.5,5.1-3.9,7.6
			C204.5,100.5,204.9,102.8,203.2,102.8z"/>
		<path class="st1" d="M181.8,61.9c3.6,1.6,6.9,3.8,10.1,6c2.1,1.4,4.5,2.6,6.7,3.9c-0.1,0.9-0.9,0.4-1.3,0.7
			c-3.5-1.6-6.6-3.7-9.7-6c-1.7-1.3-3.5-2.6-5.8-2.8C181.8,63.2,181.8,62.5,181.8,61.9z"/>
		<path class="st1" d="M216.3,38.9c-1.4,3.8-3.5,7.3-5.3,10.9c-0.7,1.3-0.8,3.1-2.5,3.9c-0.3,0-0.7-0.1-1-0.1c2.7-5,5.4-10.1,8-15.1
			C215.8,38.6,216,38.7,216.3,38.9z"/>
		<path class="st1" d="M238,74.7c-3.6-2.7-7.8-4.3-11.3-7.2c0.2-0.3,0.4-0.7,0.7-1c2,1.1,3.7,2.7,5.8,3.7s4.1,2.4,5.8,4.1
			C238.7,74.4,238.4,74.5,238,74.7z"/>
		<path class="st1" d="M206.2,101c3.6,0,7.2-0.1,10.8-0.1c-0.2,0.2-0.4,0.5-0.6,0.6c-3.3,0.2-6.6,0.3-9.8,0
			C206.5,101.4,206.4,101.1,206.2,101z"/>
		<path class="st1" d="M199.3,95.7c-0.1-2.5-0.3-5,0.1-7.5C200.1,90.6,200.3,93.2,199.3,95.7z"/>
		<path class="st1" d="M222.4,44.3c-0.1,2.4-0.2,4.8-0.3,7.1C221.6,49.1,221.2,46.7,222.4,44.3z"/>
		<path class="st1" d="M236.3,53.9c0.4-0.7,1.1-0.8,1.9-0.9c-0.2,1-1.1,0.9-1.6,1.3C236.6,54.1,236.5,54,236.3,53.9z"/>
		<path class="st1" d="M213,81.1c-0.4-0.2-0.4-0.6-0.4-1C213.1,80.3,213.3,80.6,213,81.1z"/>
		<path class="st1" d="M213.7,81.9c-0.2-0.2-0.4-0.4-0.6-0.6C213.6,81.2,213.7,81.5,213.7,81.9z"/>
		<path class="st1" d="M185.2,84c-0.1,0.3-0.5,0.5-0.6,0.2c-0.2-0.3,0.2-0.4,0.3-0.6C185,83.7,185.1,83.9,185.2,84z"/>
		<path class="st1" d="M181.8,63.7c0,0.3,0,0.5,0,0.8C181.4,64.3,181.4,64,181.8,63.7z"/>
		<path class="st1" d="M226.8,66.2c0.3-0.2,0.5,0,0.6,0.3C227.2,66.4,227,66.3,226.8,66.2z"/>
		<path class="st1" d="M231.4,54.8c0,0.2,0.1,0.5,0,0.5c-2.6,1.5-5.4,2.5-8.2,3.5c-0.1-0.2-0.2-0.4-0.2-0.6
			C225.8,57.1,228.6,56,231.4,54.8C231.4,54.9,231.4,54.8,231.4,54.8z"/>
	</g>
	<g>
		<path class="st1" d="M67,61.4l-2,11.1c-2.2,12.8-11.3,19.6-26,19.6H20.8c-2.4,0-3-0.8-2.6-3.1l8.1-46.3c0.4-2.3,1.3-3.1,3.7-3.1
			h18C62.7,39.6,69.3,48.6,67,61.4z M45.3,52.5h-6.1l-4.7,26.7h6.1c6,0,9-2.7,10.1-8l1.9-10.7C53.4,55.3,51.4,52.5,45.3,52.5z"/>
		<path class="st1" d="M77.2,53.1h6.5c1.6,0,2.1,0.6,1.8,2.2L79.4,90c-0.3,1.6-0.9,2.2-2.6,2.2h-6.5c-1.6,0-2.1-0.5-1.8-2.2
			l6.1-34.6C74.9,53.7,75.5,53.1,77.2,53.1z"/>
		<path class="st1" d="M106.4,52.3c8.1,0,12.1,3,13.7,8.1c0.6,1.6,0.1,2.1-1.6,2.9l-5.4,2.1c-1.6,0.7-2.2,0.4-2.7-1.2
			c-0.8-2.1-2.6-2.9-5.1-2.9c-3.7,0-5.4,0.9-5.8,2.9c-0.4,2.4,2.8,2.9,6.7,3.4c6.2,0.9,14,3.7,12.2,13.8
			c-1.5,8.1-7.8,11.5-18.5,11.5c-8.2,0-13.9-2.8-15-8.5c-0.3-1.6,0.3-2.4,2-3l5.4-2c1.7-0.6,2.4-0.4,3,1.2c0.6,1.9,2.6,2.9,5.7,2.9
			c3.7,0,6-0.8,6.5-3.1c0.4-2.2-2.4-2.7-5.9-3.2c-6.3-0.9-14.8-2.9-13-13.6C89.9,56.4,95.9,52.3,106.4,52.3z"/>
		<path class="st1" d="M143.3,52.3c8.5,0,12.5,3.6,13.7,9.8c0.3,1.6-0.1,2.4-1.9,3l-5.7,1.9c-1.8,0.5-2.4,0.2-2.8-1.5
			c-0.5-2.5-1.9-3.6-5-3.6c-4.3,0-6.4,1.9-7,5.7l-1.8,10.1c-0.7,3.8,0.7,5.7,5.1,5.7c3.1,0,5-1.2,6.4-3.6c0.9-1.7,1.6-2.1,3.2-1.5
			l5.6,2.2c1.6,0.6,1.9,1.4,1,3c-3.4,6.2-9.3,9.5-17.8,9.5c-10.8,0-15.9-6.4-14.2-15.9l1.8-10.2C125.5,57.5,132.4,52.3,143.3,52.3z"
			/>
	</g>
	<g>
		<path class="st1" d="M305.1,54.5l-18.3,34.9c-0.9,1.6-1.6,1.9-3.2,1.9h-6.9c-1.5,0-2.3-0.4-2.5-1.8l-6-35c-0.3-1.5,0.3-2.3,2-2.3
			h6.1c2.8,0,3.5,0.6,3.6,2.3l2,18.8c0.3,3.2,0,7.1,0,7.1h0.4c0,0,0.9-3.7,2.4-7l8.7-18.9c0.8-1.7,1.5-2.3,4.3-2.3h6.3
			C305.7,52.2,305.9,53,305.1,54.5z"/>
		<path class="st1" d="M336.1,54.5l-0.9,4.9c-0.3,1.8-1,2.3-2.8,2.3h-14.6l-0.8,4.9h11.6c1.8,0,2.2,0.6,1.9,2.4l-0.9,4.9
			c-0.3,1.8-1,2.4-2.8,2.4h-11.6l-0.9,5.3h15c1.7,0,2.2,0.5,1.9,2.3l-0.9,5c-0.3,1.7-1,2.3-2.8,2.3H304c-1.8,0-2.3-0.6-1.9-2.3
			l6-34.4c0.3-1.7,1-2.3,2.8-2.3h23C335.9,52.2,336.4,52.8,336.1,54.5z"/>
		<path class="st1" d="M370.7,65.9c-0.9,5.3-3.8,8.8-7.9,10.9c0.4,0.7,0.8,1.5,1.1,2.4l3.2,9.4c0.5,1.5-0.1,2.7-1.9,2.7h-5.9
			c-2.9,0-4-0.7-4.6-2.6l-2.2-7.5c-0.5-1.9-1-2.8-3.4-2.8h-1.4L345.8,89c-0.3,1.7-1,2.3-2.8,2.3h-6.2c-1.8,0-2.3-0.6-1.9-2.3l6-34.4
			c0.3-1.7,1-2.3,2.8-2.3h15.7C367.7,52.2,372.2,57.4,370.7,65.9z M356.4,61.8h-5.9l-1.3,7.3h5.9c2.3,0,3.9-1.4,4.3-3.7
			C359.9,63.2,358.8,61.8,356.4,61.8z"/>
		<path class="st1" d="M419.7,41.8l-22.2,29.1l-3,17.2c-0.4,2.3-1.3,3.1-3.7,3.1h-8.3c-2.4,0-3-0.8-2.6-3.1l3-17.2L371,41.8
			c-0.7-1.7-0.2-3.1,2.1-3.1h8.6c3.7,0,4.7,0.1,5.7,2.7l5.3,15.2l10.9-15.2c1.8-2.6,2.9-2.7,6.5-2.7h8.7
			C420.9,38.7,421,40.1,419.7,41.8z"/>
	</g>
</g>
</svg>
