<?xml version="1.0" encoding="utf-8"?>
<!-- Generator: Adobe Illustrator 22.0.1, SVG Export Plug-In . SVG Version: 6.00 Build 0)  -->
<svg version="1.1" id="Слой_1" xmlns="http://www.w3.org/2000/svg" xmlns:xlink="http://www.w3.org/1999/xlink" x="0px" y="0px"
	 viewBox="0 0 894.2 176" style="enable-background:new 0 0 894.2 176;" xml:space="preserve">
<style type="text/css">
	.st0{fill:#58838C;}
	.st1{fill:#FFFFFF;}
	.st2{fill:#689BA6;stroke:#FFFFFF;stroke-width:5;stroke-miterlimit:10;}
	.st3{fill:#FFFFFF;enable-background:new    ;}
	.st4{fill:none;stroke:#B8B3AD;stroke-width:2;stroke-miterlimit:10;}
	.st5{display:none;}
</style>
<g id="Слой_1_1_">
	<g>
		<g>
			<polygon class="st0" points="58.5,172.7 58.5,102.7 4,15.7 4,5.3 54.3,5.3 82.7,56.6 110.9,5.3 161.5,5.3 161.5,15.8 
				106.5,102.7 106.5,172.7 			"/>
			<path class="st1" d="M158.1,8.7v6.2l-54.9,86.9v67.5H61.9v-67.5l-54.5-87V8.7h44.9l29.6,53.4h1.6l29.4-53.4L158.1,8.7 M164.9,1.9
				h-6.8h-45.2h-4.1L107,5.4L82.6,49.7L58.2,5.4l-1.9-3.5h-3.9h-45H0.6v6.8v6.1v1.9l1.1,1.6l53.6,85.2v65.6v6.8H62h41.3h6.8v-6.8
				v-65.5L164,18.4l1.1-1.6v-1.9V8.7V1.9H164.9z"/>
		</g>
	</g>
	<g>
		<path class="st2" d="M149.2,167.4v5.3h-40.7l-24.6-41.8H65.1v41.8c-12.3,0-24.6,0-36.5,0c0-47.2,0-94.6,0-142.1
			c20.6,0,41.7,0,62.5,0c56,0.3,66.3,67.4,30.2,91.7L149.2,167.4z M91.1,63.1c-8.5-0.3-17.5,0-26,0c0,11.5,0,23.8,0,35h26
			C110.9,98.2,112,63.3,91.1,63.1z"/>
	</g>
	<g class="st3">
		<path d="M219.5,67.3v13.2h-29.9V67.3h7.5V34.8h-6.9V21.7h28.7v13.1H212v32.5H219.5z"/>
		<path d="M244.9,51.6v28.9c-5.2,0-10.4,0-15.6,0V21.4h5.5l29.8,29.1V21.7c5.1,0,10.3,0,15.4,0v58.9h-5.4L244.9,51.6z"/>
		<path d="M289.1,35.1c0-4.5,0-9,0-13.5h43.7c0,4.5,0,8.9,0,13.5h-14.4v45.4c-5,0-9.9,0-14.9,0V35.1H289.1z"/>
		<path d="M378.9,35.1c-8.7,0-13.1,0-21.8,0v8.3h20c0,4.5,0,8.9,0,13.4h-20c0,3.4,0,6.8,0,10.3c8.7,0,13.7,0,22.5,0
			c0,4.4,0,8.9,0,13.4c-13.8,0-23.9,0-37.5,0c0-19.7,0-39.4,0-58.9c13.6,0,23,0,36.7,0C378.9,26,378.9,30.6,378.9,35.1z"/>
		<path d="M442.3,78.3v2.2h-16.8l-10.1-17.3h-7.8v17.3c-5,0-10.2,0-15.1,0c0-19.6,0-39.2,0-58.9c8.5,0,17.2,0,25.8,0
			c23.1,0.1,27.3,27.9,12.4,38L442.3,78.3z M418.3,35.1c-3.5-0.1-7.2,0-10.8,0c0,4.8,0,9.8,0,14.5h10.8
			C426.5,49.7,426.9,35.2,418.3,35.1z"/>
		<path d="M466.9,51.6v28.9c-5.2,0-10.4,0-15.6,0V21.4h5.5l29.8,29.1V21.7c5.1,0,10.3,0,15.4,0v58.9h-5.4L466.9,51.6z"/>
		<path d="M551,73.1h-23.2l-3.4,7.4h-14.7v-2.2l26.5-57.4h6.5l26.6,57.4v2.2h-14.7L551,73.1z M539.3,44.7l-6.6,15.5H546L539.3,44.7z
			"/>
		<path d="M567.8,35.1c0-4.5,0-9,0-13.5h43.7c0,4.5,0,8.9,0,13.5h-14.4v45.4c-5,0-9.9,0-14.9,0V35.1H567.8z"/>
		<path d="M647.1,67.3c0,5,0,8.1,0,13.2c-10,0-19.8,0-29.9,0c0-5.1,0-8.2,0-13.2h7.5V34.8h-6.9c0-5,0-8.2,0-13.1
			c9.6,0,19.1,0,28.7,0c0,5,0,8.1,0,13.1h-6.9v32.5H647.1z"/>
		<path d="M653.3,51.2c0-40.7,60.4-40.7,60.4,0C713.7,92,653.3,92,653.3,51.2z M698.3,51.2c0-21.2-29.5-21.2-29.5,0
			C668.8,72.5,698.3,72.5,698.3,51.2z"/>
		<path d="M740.6,51.6v28.9c-5.2,0-10.4,0-15.6,0V21.4h5.5l29.8,29.1V21.7c5.1,0,10.3,0,15.4,0v58.9h-5.4L740.6,51.6z"/>
		<path d="M824.6,73.1h-23.2l-3.4,7.4h-14.7v-2.2l26.5-57.4h6.5l26.6,57.4v2.2H828L824.6,73.1z M812.9,44.7l-6.6,15.5h13.3
			L812.9,44.7z"/>
		<path d="M865.5,67h21.4c0,5,0,8.5,0,13.5c-12.1,0-24.6,0-36.5,0V21.7c5,0,10,0,15.1,0C865.5,52.1,865.5,41.9,865.5,67z"/>
	</g>
	<g class="st3">
		<path d="M218.9,121.5c-6.3,0-9.5,0-15.7,0v6h14.4c0,3.2,0,6.4,0,9.6h-14.4c0,2.5,0,4.9,0,7.5c6.2,0,9.9,0,16.2,0
			c0,3.2,0,6.4,0,9.6c-9.9,0-17.2,0-27,0c0-14.2,0-28.4,0-42.4c9.8,0,16.5,0,26.5,0C218.9,114.9,218.9,118.2,218.9,121.5z"/>
		<path d="M266.2,111.7h3.9v42.5c-3.7,0-7.4,0-11.1,0v-18.9l-9,9.5h-1.2l-9-9.5v18.9c-3.7,0-7.4,0-11.1,0v-42.5h4l16.6,18.4
			L266.2,111.7z"/>
		<path d="M280.9,154.2c0-14.1,0-28.2,0-42.4c6.1,0,12.4,0,18.7,0c20.3,0.1,20.3,31.6,0,31.6h-7.8v10.8
			C288.1,154.2,284.5,154.2,280.9,154.2z M299.5,121.5c-2.5-0.1-5.3,0-7.8,0c0,3.5,0,8.7,0,12.1h7.8
			C305.4,133.6,305.8,121.5,299.5,121.5z"/>
		<path d="M333.8,144.5h15.4c0,3.6,0,6.1,0,9.8c-8.7,0-17.7,0-26.3,0v-42.4c3.6,0,7.2,0,10.9,0C333.8,133.7,333.8,126.4,333.8,144.5
			z"/>
		<path d="M354,133.1c0-29.3,43.5-29.3,43.5,0C397.5,162.5,354,162.5,354,133.1z M386.5,133.1c0-15.3-21.3-15.3-21.3,0
			C365.2,148.5,386.5,148.5,386.5,133.1z"/>
		<path d="M424.4,154.2h-10.7v-17.8l-14.2-23v-1.6h11.7l7.7,14.1h0.4l7.7-14.1h11.8v1.6l-14.3,23V154.2z"/>
		<path d="M482,111.7h3.9v42.5c-3.7,0-7.4,0-11.1,0v-18.9l-9,9.5h-1.2l-9-9.5v18.9c-3.7,0-7.4,0-11.1,0v-42.5h4l16.6,18.4L482,111.7
			z"/>
		<path d="M523.2,121.5c-6.3,0-9.5,0-15.7,0v6h14.4c0,3.2,0,6.4,0,9.6h-14.4c0,2.5,0,4.9,0,7.5c6.2,0,9.9,0,16.2,0
			c0,3.2,0,6.4,0,9.6c-9.9,0-17.2,0-27,0c0-14.2,0-28.4,0-42.4c9.8,0,16.5,0,26.5,0C523.2,114.9,523.2,118.2,523.2,121.5z"/>
		<path d="M544.3,133.4v20.8c-3.8,0-7.5,0-11.2,0v-42.6h3.9l21.5,21v-20.8c3.7,0,7.4,0,11.1,0v42.5h-3.9L544.3,133.4z"/>
		<path d="M576.1,121.5c0-3.3,0-6.5,0-9.7h31.5c0,3.2,0,6.4,0,9.7h-10.4v32.7c-3.6,0-7.2,0-10.7,0v-32.7H576.1z"/>
		<path d="M655.5,148.9h-16.7l-2.5,5.3h-10.6v-1.6l19.1-41.4h4.7l19.2,41.4v1.6H658L655.5,148.9z M647.1,128.4l-4.7,11.2h9.6
			L647.1,128.4z"/>
		<path d="M693.4,111.2c8.5,0.1,17.5,4.5,19.5,15h-10.7c-1.8-3.6-4.5-5.1-8.8-5.1c-6.8,0-10.5,5.3-10.5,11.8c0,7,4.1,11.6,10.5,11.6
			c4.4,0,7.2-1.2,9.1-5.2h-9V130h20.1c0.2,4.2,0.2,8.3-1.2,12.4c-3,8.8-11.1,12.2-18.9,12.2c-10.8,0-21.7-7.2-21.8-21.7
			C671.7,118.5,682.6,111.2,693.4,111.2z"/>
		<path d="M748.6,121.5c-6.3,0-9.5,0-15.7,0v6h14.4c0,3.2,0,6.4,0,9.6h-14.4c0,2.5,0,4.9,0,7.5c6.2,0,9.9,0,16.2,0
			c0,3.2,0,6.4,0,9.6c-9.9,0-17.2,0-27,0c0-14.2,0-28.4,0-42.4c9.8,0,16.5,0,26.5,0C748.6,114.9,748.6,118.2,748.6,121.5z"/>
		<path d="M769.7,133.4v20.8c-3.8,0-7.5,0-11.2,0v-42.6h3.9l21.5,21v-20.8c3.7,0,7.4,0,11.1,0v42.5H791L769.7,133.4z"/>
		<path d="M824.9,111.3c8.8,0,18.3,4.8,19.9,16.1c-3.7,0-7,0-10.7,0c-1.5-4.3-4.7-6.2-9.3-6.2c-6.4,0-10.5,4.8-10.5,11.8
			c0,6.2,4.1,11.7,10.5,11.8c4.6,0,8.3-2.3,9.5-6.8c3.6,0,7,0,10.7,0c-1.6,12-11.1,16.7-20.1,16.7c-10.8,0.1-21.7-7.2-21.8-21.6
			C803.2,118.6,814.1,111.3,824.9,111.3z"/>
		<path d="M873.5,154.2h-10.7v-17.8l-14.2-23v-1.6h11.7l7.7,14.1h0.4l7.7-14.1h11.8v1.6l-14.3,23V154.2z"/>
	</g>
	<line class="st4" x1="177.5" y1="10" x2="177.5" y2="166"/>
</g>
<g id="Слой_2_1_" class="st5">
</g>
</svg>
