<?xml version="1.0" encoding="utf-8"?>
<!-- Generator: Adobe Illustrator 22.0.1, SVG Export Plug-In . SVG Version: 6.00 Build 0)  -->
<svg version="1.1" id="Слой_1" xmlns="http://www.w3.org/2000/svg" xmlns:xlink="http://www.w3.org/1999/xlink" x="0px" y="0px"
	 viewBox="0 0 165.2 176" style="enable-background:new 0 0 165.2 176;" xml:space="preserve">
<style type="text/css">
	.st0{fill:#58838C;}
	.st1{fill:#FFFFFF;}
	.st2{fill:#689BA6;stroke:#FFFFFF;stroke-width:5;stroke-miterlimit:10;}
	.st3{display:none;}
</style>
<g id="Слой_1_1_">
	<g>
		<g>
			<polygon class="st0" points="58.5,172.5 58.5,102.5 4,15.5 4,5.1 54.3,5.1 82.7,56.4 110.9,5.1 161.5,5.1 161.5,15.6 
				106.5,102.5 106.5,172.5 			"/>
			<path class="st1" d="M158.1,8v6.2l-54.9,86.9v67.5H61.9v-67.5l-54.5-87V8h44.9l29.6,53.4h1.6L112.9,8L158.1,8 M164.9,1.2h-6.8
				h-45.2h-4.1L107,4.7L82.6,49L58.2,4.7l-1.9-3.5h-3.9h-45H0.6V8v6.1V16l1.1,1.6l53.6,85.2v65.6v6.8H62h41.3h6.8v-6.8v-65.5
				L164,17.7l1.1-1.6v-1.9V8V1.2H164.9z"/>
		</g>
	</g>
	<g>
		<path class="st2" d="M149.2,167.4v5.3h-40.7l-24.6-41.8H65.1v41.8c-12.3,0-24.6,0-36.5,0c0-47.2,0-94.6,0-142.1
			c20.6,0,41.7,0,62.5,0c56,0.3,66.3,67.4,30.2,91.7L149.2,167.4z M91.1,63.1c-8.5-0.3-17.5,0-26,0c0,11.5,0,23.8,0,35h26
			C110.9,98.2,112,63.3,91.1,63.1z"/>
	</g>
</g>
<g id="Слой_2_1_" class="st3">
</g>
</svg>
